<?xml version="1.0" encoding="UTF-8"?>
<svg width="512" height="512" enable-background="new 0 0 512 512" version="1.1" viewBox="0 0 512 512" xmlns="http://www.w3.org/2000/svg" xmlns:cc="http://creativecommons.org/ns#" xmlns:dc="http://purl.org/dc/elements/1.1/" xmlns:rdf="http://www.w3.org/1999/02/22-rdf-syntax-ns#">
 <metadata>
  <rdf:RDF>
   <cc:Work rdf:about="">
    <dc:format>image/svg+xml</dc:format>
    <dc:type rdf:resource="http://purl.org/dc/dcmitype/StillImage"/>
    <dc:title/>
   </cc:Work>
  </rdf:RDF>
 </metadata>
 <g fill="#b1b1b3">
  <path d="m507.26 151.04-120.5-112.97c-5.77-5.409-14.748-5.409-20.518 0l-49.991 46.869-49.991-46.869c-5.77-5.409-14.748-5.41-20.518 0l-49.991 46.868-49.991-46.868c-5.77-5.409-14.749-5.409-20.518 0l-120.5 112.97c-3.025 2.836-4.741 6.797-4.741 10.943v301c0 8.284 6.716 15 15 15h482c8.284 0 15-6.716 15-15v-301c0-4.146-1.716-8.107-4.741-10.943zm-477.26 17.441 105.5-98.91 38.319 35.925-48.578 45.543c-3.024 2.836-4.741 6.797-4.741 10.943v46h-45c-8.284 0-15 6.716-15 15v60c0 8.284 6.716 15 15 15h45v30h-45c-8.284 0-15 6.716-15 15v60c0 8.284 6.716 15 15 15h45v30h-90.5zm90.5 99.502h-30v-30h30zm0 120h-30v-30h30zm30-219.5 105.5-98.91 105.5 98.91v279.5h-60.5v-60h5.5c8.284 0 15-6.716 15-15s-6.716-15-15-15h-101c-8.284 0-15 6.716-15 15s6.716 15 15 15h5.5v60h-60.5zm241 189.5h30v30h-30zm0-120h30v30h-30zm-120.5 150v60h-30v-60zm211 60h-90.5v-30h45c8.284 0 15-6.716 15-15v-60c0-8.284-6.716-15-15-15h-45v-30h45c8.284 0 15-6.716 15-15v-60c0-8.284-6.716-15-15-15h-45v-46c0-4.146-1.716-8.107-4.741-10.943l-48.578-45.543 38.319-35.925 105.5 98.91z"/>
  <path d="m205.5 297.99h101c8.284 0 15-6.716 15-15s-6.716-15-15-15h-5.5v-45c0-8.284-6.716-15-15-15h-60c-8.284 0-15 6.716-15 15v45h-5.5c-8.284 0-15 6.716-15 15s6.716 15 15 15zm35.5-60h30v30h-30z"/>
 </g>
</svg>
